<svg xmlns="http://www.w3.org/2000/svg" xmlns:xlink="http://www.w3.org/1999/xlink" width="64" zoomAndPan="magnify" viewBox="0 0 48 48" height="64" preserveAspectRatio="xMidYMid meet" version="1.0"><defs><clipPath id="98fbe033ec"><path d="M 2.507812 0 L 45.855469 0 L 45.855469 47.019531 L 2.507812 47.019531 Z M 2.507812 0 " clip-rule="nonzero"/></clipPath></defs><g clip-path="url(#98fbe033ec)"><path fill="#231f20" d="M 45.0625 29.828125 C 44.652344 29.246094 44.074219 28.789062 43.605469 28.257812 C 43.144531 27.726562 42.726562 27.160156 42.34375 26.570312 C 41.574219 25.367188 40.960938 24.066406 40.460938 22.730469 C 39.394531 19.898438 38.824219 16.921875 38.085938 13.996094 C 37.34375 11.03125 36.417969 8.003906 34.664062 5.460938 C 33.144531 3.25 31 1.386719 28.417969 0.550781 C 27.167969 0.144531 25.828125 0.00390625 24.523438 0.183594 C 23.125 0.375 21.789062 0.925781 20.613281 1.691406 C 18.082031 3.34375 16.371094 5.914062 15.113281 8.609375 C 13.742188 11.5625 12.773438 14.6875 11.839844 17.800781 C 10.894531 20.964844 9.992188 24.148438 8.796875 27.234375 C 7.839844 29.699219 6.691406 32.441406 4.449219 34.015625 C 3.933594 34.375 3.375 34.65625 2.777344 34.839844 C 2.582031 34.902344 2.507812 35.148438 2.65625 35.300781 C 4.234375 36.890625 5.992188 38.285156 7.886719 39.476562 C 7.867188 39.515625 7.847656 39.554688 7.828125 39.59375 C 7.675781 39.878906 7.519531 40.175781 7.457031 40.496094 C 7.335938 41.101562 7.558594 41.65625 7.996094 42.078125 C 8.421875 42.488281 8.964844 42.757812 9.5 42.992188 C 10.074219 43.25 10.671875 43.457031 11.28125 43.617188 C 12.527344 43.949219 13.820312 44.097656 15.105469 44.167969 C 15.828125 44.210938 16.550781 44.226562 17.273438 44.238281 C 17.378906 44.238281 17.535156 44.25 17.707031 44.25 C 17.695312 44.28125 17.6875 44.3125 17.675781 44.347656 C 17.539062 44.789062 17.414062 45.292969 17.550781 45.75 C 17.695312 46.242188 18.117188 46.523438 18.597656 46.621094 C 19.148438 46.738281 19.726562 46.769531 20.285156 46.820312 C 21.511719 46.933594 22.738281 46.992188 23.964844 47.003906 C 25.183594 47.015625 26.398438 46.976562 27.613281 46.886719 C 28.214844 46.84375 28.820312 46.789062 29.421875 46.71875 C 29.917969 46.660156 30.421875 46.570312 30.820312 46.246094 C 31.207031 45.9375 31.375 45.453125 31.441406 44.976562 C 31.523438 44.40625 31.539062 43.820312 31.546875 43.246094 C 31.558594 42.605469 31.535156 41.96875 31.480469 41.332031 C 33.707031 41.671875 36.015625 41.210938 37.953125 40.0625 C 38.445312 39.773438 38.910156 39.4375 39.339844 39.0625 C 39.761719 38.699219 40.324219 38.257812 40.328125 37.652344 C 40.332031 37.335938 40.195312 37.035156 40.058594 36.757812 C 39.910156 36.46875 39.765625 36.175781 39.621094 35.886719 C 39.519531 35.679688 39.417969 35.46875 39.324219 35.257812 C 40.742188 34.738281 42.109375 34.039062 43.367188 33.199219 C 43.96875 32.792969 44.617188 32.371094 45.050781 31.777344 C 45.484375 31.179688 45.488281 30.429688 45.0625 29.828125 Z M 45.0625 29.828125 " fill-opacity="1" fill-rule="nonzero"/></g><path fill="#0ea881" d="M 43.964844 29.671875 C 43.453125 29.175781 42.988281 28.648438 42.554688 28.085938 C 40.84375 25.84375 39.828125 23.160156 39.058594 20.46875 C 38.222656 17.542969 37.699219 14.535156 36.8125 11.617188 C 35.96875 8.851562 34.777344 6.144531 32.761719 4.027344 C 30.984375 2.164062 28.609375 0.667969 25.972656 0.5625 C 23.160156 0.449219 20.539062 1.914062 18.664062 3.925781 C 16.570312 6.171875 15.300781 9.054688 14.246094 11.898438 C 13.113281 14.949219 12.238281 18.089844 11.296875 21.203125 C 10.394531 24.1875 9.457031 27.21875 8.089844 30.027344 C 7.058594 32.152344 5.601562 34.289062 3.355469 35.210938 C 4.835938 36.617188 6.429688 37.902344 8.125 39.042969 C 8.195312 38.90625 8.269531 38.773438 8.339844 38.640625 C 9.03125 37.363281 9.722656 36.082031 10.414062 34.804688 C 10.535156 34.578125 10.867188 34.777344 10.753906 35.003906 C 10.082031 36.351562 9.410156 37.695312 8.738281 39.039062 C 8.660156 39.191406 8.585938 39.34375 8.507812 39.496094 C 8.5 39.53125 8.480469 39.566406 8.457031 39.597656 C 8.40625 39.703125 8.355469 39.804688 8.304688 39.910156 C 8.179688 40.15625 8.054688 40.421875 8.027344 40.703125 C 7.976562 41.195312 8.300781 41.589844 8.683594 41.859375 C 9.589844 42.507812 10.738281 42.871094 11.8125 43.121094 C 12.945312 43.386719 14.105469 43.507812 15.265625 43.570312 C 15.859375 43.601562 16.453125 43.617188 17.046875 43.625 C 17.328125 43.628906 17.609375 43.636719 17.890625 43.636719 C 17.992188 43.300781 18.089844 42.964844 18.183594 42.628906 C 18.5 41.484375 18.773438 40.328125 19.007812 39.164062 C 19.480469 36.824219 19.832031 34.457031 20.007812 32.078125 C 20.023438 31.832031 20.398438 31.828125 20.390625 32.078125 C 20.292969 34.613281 20.015625 37.140625 19.5 39.628906 C 19.269531 40.746094 19 41.855469 18.695312 42.953125 C 18.644531 43.128906 18.59375 43.304688 18.542969 43.480469 C 18.472656 43.714844 18.398438 43.953125 18.328125 44.1875 C 18.289062 44.316406 18.25 44.449219 18.210938 44.578125 C 18.105469 44.929688 17.957031 45.425781 18.183594 45.757812 C 18.425781 46.113281 19.007812 46.105469 19.386719 46.148438 C 19.960938 46.210938 20.539062 46.265625 21.113281 46.308594 C 22.269531 46.390625 23.425781 46.429688 24.582031 46.421875 C 25.738281 46.417969 26.890625 46.363281 28.042969 46.269531 C 28.582031 46.226562 29.125 46.191406 29.65625 46.097656 C 30.089844 46.023438 30.507812 45.882812 30.71875 45.46875 C 30.933594 45.046875 30.9375 44.523438 30.96875 44.0625 C 31.007812 43.496094 31.019531 42.925781 31.007812 42.355469 C 30.988281 41.191406 30.855469 40.039062 30.617188 38.898438 C 30.550781 38.570312 31.054688 38.433594 31.117188 38.761719 C 31.179688 39.050781 31.230469 39.34375 31.277344 39.636719 C 31.339844 40.023438 31.390625 40.414062 31.429688 40.804688 C 31.488281 40.78125 31.554688 40.773438 31.621094 40.785156 C 32.792969 40.964844 34.003906 40.894531 35.15625 40.605469 C 36.1875 40.347656 37.167969 39.914062 38.054688 39.328125 C 38.5 39.03125 38.914062 38.695312 39.296875 38.324219 C 39.472656 38.152344 39.726562 37.949219 39.746094 37.683594 C 39.765625 37.402344 39.578125 37.121094 39.457031 36.878906 C 38.878906 35.773438 38.378906 34.613281 38.046875 33.40625 C 37.886719 32.820312 37.761719 32.214844 37.714844 31.609375 C 37.667969 31 37.714844 30.378906 37.816406 29.777344 C 37.847656 29.59375 38.15625 29.640625 38.140625 29.824219 C 38.03125 31.269531 38.339844 32.742188 38.839844 34.09375 C 38.90625 34.277344 38.980469 34.460938 39.054688 34.640625 C 39.730469 34.394531 40.394531 34.117188 41.039062 33.792969 C 41.730469 33.449219 42.390625 33.054688 43.027344 32.617188 C 43.570312 32.246094 44.242188 31.839844 44.570312 31.242188 C 44.914062 30.609375 44.398438 30.085938 43.964844 29.671875 Z M 21.765625 19.21875 C 21.335938 19.523438 20.777344 19.371094 20.472656 18.976562 C 20.246094 18.683594 20.160156 18.308594 20.09375 17.953125 C 19.945312 17.183594 19.949219 16.425781 20.089844 15.65625 C 20.148438 15.316406 20.238281 14.984375 20.359375 14.664062 C 20.4375 14.460938 20.535156 14.269531 20.699219 14.136719 C 20.835938 14.015625 21.011719 13.9375 21.199219 13.933594 C 21.496094 13.929688 21.777344 14.074219 21.933594 14.328125 C 22.03125 14.488281 22.085938 14.671875 22.136719 14.851562 C 22.355469 15.578125 22.476562 16.351562 22.480469 17.109375 C 22.480469 17.847656 22.429688 18.753906 21.765625 19.21875 Z M 25.863281 19.335938 C 25.609375 19.671875 25.191406 19.828125 24.777344 19.773438 C 24.355469 19.71875 24.003906 19.480469 23.824219 19.085938 C 23.652344 18.703125 23.683594 18.320312 23.855469 17.945312 C 23.960938 17.71875 24.308594 17.839844 24.308594 18.066406 C 24.308594 18.28125 24.375 18.515625 24.496094 18.695312 C 24.542969 18.761719 24.59375 18.808594 24.660156 18.851562 C 24.679688 18.863281 24.761719 18.902344 24.757812 18.90625 C 24.777344 18.910156 24.878906 18.9375 24.835938 18.929688 C 25 18.953125 25.089844 18.929688 25.183594 18.808594 C 25.347656 18.585938 25.359375 18.277344 25.332031 18.015625 C 25.289062 17.585938 26 17.496094 26.085938 17.914062 C 26.179688 18.378906 26.164062 18.945312 25.863281 19.335938 Z M 30 17.496094 C 29.917969 18.027344 29.582031 18.539062 29.023438 18.648438 C 28.40625 18.769531 27.890625 18.390625 27.707031 17.8125 C 27.582031 17.417969 27.625 16.960938 27.644531 16.558594 C 27.667969 16.117188 27.710938 15.667969 27.804688 15.238281 C 27.832031 15.113281 27.867188 14.980469 27.917969 14.847656 C 27.980469 14.488281 28.117188 14.148438 28.453125 13.949219 C 28.785156 13.753906 29.214844 13.84375 29.480469 14.113281 C 29.660156 14.296875 29.742188 14.574219 29.816406 14.820312 C 29.953125 15.253906 30.027344 15.707031 30.066406 16.160156 C 30.101562 16.609375 30.070312 17.054688 30 17.496094 Z M 33.203125 8.824219 C 33.101562 8.683594 33.082031 8.480469 33.035156 8.316406 C 32.988281 8.160156 32.941406 8.011719 32.882812 7.859375 C 32.777344 7.574219 32.644531 7.292969 32.507812 7.019531 C 32.222656 6.453125 31.863281 5.894531 31.46875 5.390625 C 31.351562 5.242188 31.507812 4.964844 31.695312 5.097656 C 31.984375 5.308594 32.257812 5.535156 32.5 5.792969 C 32.742188 6.050781 32.945312 6.359375 33.125 6.660156 C 33.320312 6.976562 33.46875 7.316406 33.597656 7.664062 C 33.710938 7.976562 33.898438 8.410156 33.828125 8.742188 C 33.757812 9.058594 33.363281 9.035156 33.203125 8.824219 Z M 34.105469 10.707031 C 34.03125 10.765625 33.960938 10.773438 33.871094 10.734375 C 33.730469 10.675781 33.699219 10.496094 33.675781 10.363281 C 33.652344 10.222656 33.613281 10.089844 33.566406 9.957031 C 33.480469 9.71875 33.855469 9.570312 33.96875 9.789062 C 34.085938 10.003906 34.359375 10.5 34.105469 10.707031 Z M 34.105469 10.707031 " fill-opacity="1" fill-rule="nonzero"/></svg>